# xmcd
#
# Track frame offsets: 
#        150
#        24002
#        50612
#        74140
#        90975
#        110552
#        131240
#        161327
#        173890
#        192565
#        209347
#
# Disc length: 2870 seconds
#
# Revision: 3
# Processed by: cddbd v1.5.1PL2 Copyright (c) Steve Scherf et al.
# Submitted via: ExactAudioCopy v0.95b3
#
DISCID=9b0b340b
DTITLE=Ronaldo Folegatti - Sounds Of Watercolors
DYEAR=1990
DGENRE=Jazz
TTITLE0=White Samba
TTITLE1=The Color of the Watercolor
TTITLE2=Rooms In Blue
TTITLE3=Zanzam
TTITLE4=Bolero for My Friends
TTITLE5=Monica And Cigar
TTITLE6=Autumn Feelings
TTITLE7=Topology
TTITLE8=A Winter Market
TTITLE9=Dancing Ebi
TTITLE10=MussI Denn
EXTD=more info\nMillenniumMusicProjectFormat, syntax as follows:\nTitl
EXTD=e{Subtitle}[info](Lyricist;Composer;Date,Artist,Location)[info]\n
EXTD=corrections to: windking3@yahoo.com YEAR: 1990
EXTT0=
EXTT1=
EXTT2=
EXTT3=
EXTT4=
EXTT5=
EXTT6=
EXTT7=
EXTT8=
EXTT9=
EXTT10=
PLAYORDER=
